# xmcd CD database file
#
# Track frame offsets:
#	150
#	12376
#	25700
#	35843
#	50072
#	63223
#	76729
#	90805
#	103313
#	118120
#	129200
#	142783
#	156439
#	169903
#	185405
#	199465
#	212040
#	227608
#	242380
#	253414
#	268483
#	280946
#	294741
#	309396
#	323359
#	337275
#
# Disc length: 4650 seconds
#
# Revision: 0
# Processed by: cddbd v1.4PL0 Copyright (c) Steve Scherf et al.
# Submitted via: CDex 1.50
#
DISCID=7e12281a
DTITLE=Django Reinhardt - Django Reinhardt And His American Friends 2
DYEAR=2000
DGENRE=Jazz
TTITLE0=Bugle Call Rag
TTITLE1=Between The Devil And The Deep Blue Sea
TTITLE2=I Got Rythm
TTITLE3=Sweet Sue
TTITLE4=Hangin' Around Boudon
TTITLE5=Japanese Sandman
TTITLE6=Eddie's Blues
TTITLE7=Sweet Georgia Brown
TTITLE8=Lady Be Good
TTITLE9=Dinah
TTITLE10=Daphne
TTITLE11=Ain't Got Nobody
TTITLE12=Baby Won't You Please Come Home?
TTITLE13=Big Boy Blues
TTITLE14=Swing Guitars
TTITLE15=Bill Coleman Blues
TTITLE16=Somebody Loves Me
TTITLE17=I Can't Believe You're In Love With Me
TTITLE18=Interpretation Swing Du Premier Mouvement Du Concerto En Re Mineur
TTITLE19=Improvisation Sur Le Premier Mouvement Du Concerto En Re Mineur
TTITLE20=Fiddle's Blues
TTITLE21=I'm Coming Virginia
TTITLE22=Farewell Blues
TTITLE23=Blue Light Blues
TTITLE24=Body And Soul
TTITLE25=Lover Come Back To Me
EXTD=YEAR: 2000
EXTT0=
EXTT1=
EXTT2=
EXTT3=
EXTT4=
EXTT5=
EXTT6=
EXTT7=
EXTT8=
EXTT9=
EXTT10=
EXTT11=
EXTT12=
EXTT13=
EXTT14=
EXTT15=
EXTT16=
EXTT17=
EXTT18=
EXTT19=
EXTT20=
EXTT21=
EXTT22=
EXTT23=
EXTT24=
EXTT25=
PLAYORDER=
